<svg version="1.1" viewBox="0.0 0.0 960.0 540.0" fill="none" stroke="none" stroke-linecap="square" stroke-miterlimit="10" xmlns:xlink="http://www.w3.org/1999/xlink" xmlns="http://www.w3.org/2000/svg"><clipPath id="p.0"><path d="m0 0l960.0 0l0 540.0l-960.0 0l0 -540.0z" clip-rule="nonzero"/></clipPath><g clip-path="url(#p.0)"><defs><linearGradient id="p.1" gradientUnits="userSpaceOnUse" gradientTransform="matrix(23.237974851393545 0.0 0.0 23.237974851393545 0.0 0.0)" spreadMethod="pad" x1="5.413619158564821E-10" y1="-1.4954790521761285E-4" x2="-8.4120700051006E-5" y2="23.237825303336063"><stop offset="0.0" stop-color="#7dafaf"/><stop offset="1.0" stop-color="#466363"/></linearGradient></defs><path fill="url(#p.1)" d="m0 0l960.0 0l0 540.0l-960.0 0z" fill-rule="evenodd"/><path fill="#ffffff" fill-opacity="0.0941" d="m787.5489 467.5812l0 0l0 0c4.4105225 0 8.640381 1.7520752 11.759155 4.8707886c3.1187134 3.1187134 4.8707886 7.3486023 4.8707886 11.759125l0 55.653564c0 1.2207031E-4 -1.2207031E-4 2.4414062E-4 -3.0517578E-4 2.4414062E-4l-33.259583 -2.4414062E-4l0 0c-1.2207031E-4 0 -2.4414062E-4 -1.2207031E-4 -2.4414062E-4 -3.0517578E-4l2.4414062E-4 -55.65326l0 0c0 -9.184448 7.4454956 -16.629913 16.629944 -16.629913z" fill-rule="evenodd"/><path fill="#ffffff" fill-opacity="0.0941" d="m787.5489 504.11795l0 0l0 0c4.4105225 0 8.640381 1.7520752 11.759155 4.8707886c3.1187134 3.118744 4.8707886 7.3486023 4.8707886 11.759125l0 19.118103c0 1.8310547E-4 -1.2207031E-4 3.0517578E-4 -3.0517578E-4 3.0517578E-4l-33.259583 -3.0517578E-4l0 0c-1.2207031E-4 0 -2.4414062E-4 -1.2207031E-4 -2.4414062E-4 -2.4414062E-4l2.4414062E-4 -19.117859l0 0c0 -9.184448 7.4454956 -16.629913 16.629944 -16.629913z" fill-rule="evenodd"/><path fill="#ffffff" fill-opacity="0.0941" d="m835.6546 467.5812l0 0l0 0c4.4105225 0 8.640442 1.7520752 11.759155 4.8707886c3.1187134 3.1187134 4.8707886 7.3486023 4.8707886 11.759125l0 55.653564c0 1.2207031E-4 -1.2207031E-4 2.4414062E-4 -3.0517578E-4 2.4414062E-4l-33.259583 -2.4414062E-4l0 0c-1.2207031E-4 0 -2.4414062E-4 -1.2207031E-4 -2.4414062E-4 -3.0517578E-4l2.4414062E-4 -55.65326l0 0c0 -9.184448 7.4454956 -16.629913 16.629944 -16.629913z" fill-rule="evenodd"/><path fill="#ffffff" fill-opacity="0.0941" d="m835.6546 431.04462l0 0l0 0c4.4105225 0 8.640442 1.7520752 11.759155 4.8707886c3.1187134 3.1187134 4.8707886 7.3486023 4.8707886 11.759125l0 92.188995c0 1.2207031E-4 -1.2207031E-4 2.4414062E-4 -3.0517578E-4 2.4414062E-4l-33.259583 -2.4414062E-4l0 0c-1.2207031E-4 0 -2.4414062E-4 -1.2207031E-4 -2.4414062E-4 -3.0517578E-4l2.4414062E-4 -92.18869l0 0c0 -9.184448 7.4454956 -16.629913 16.629944 -16.629913z" fill-rule="evenodd"/><path fill="#ffffff" fill-opacity="0.0941" d="m835.6546 504.11795l0 0l0 0c4.4105225 0 8.640442 1.7520752 11.759155 4.8707886c3.1187134 3.118744 4.8707886 7.3486023 4.8707886 11.759125l0 19.118103c0 1.8310547E-4 -1.2207031E-4 3.0517578E-4 -3.0517578E-4 3.0517578E-4l-33.259583 -3.0517578E-4l0 0c-1.2207031E-4 0 -2.4414062E-4 -1.2207031E-4 -2.4414062E-4 -2.4414062E-4l2.4414062E-4 -19.117859l0 0c0 -9.184448 7.4454956 -16.629913 16.629944 -16.629913z" fill-rule="evenodd"/><path fill="#ffffff" fill-opacity="0.0941" d="m883.76044 467.5812l0 0l0 0c4.4105225 0 8.640381 1.7520752 11.759094 4.8707886c3.1187134 3.1187134 4.8707886 7.3486023 4.8707886 11.759125l0 55.653564c0 1.2207031E-4 -1.2207031E-4 2.4414062E-4 -2.4414062E-4 2.4414062E-4l-33.259583 -2.4414062E-4l0 0c-1.2207031E-4 0 -3.0517578E-4 -1.2207031E-4 -3.0517578E-4 -3.0517578E-4l3.0517578E-4 -55.65326l0 0c0 -9.184448 7.4454956 -16.629913 16.629944 -16.629913z" fill-rule="evenodd"/><path fill="#ffffff" fill-opacity="0.0941" d="m883.76044 394.50797l0 0l0 0c4.4105225 0 8.640381 1.7520752 11.759094 4.8707886c3.1187134 3.1187134 4.8707886 7.3486023 4.8707886 11.759125l0 128.72443c0 1.2207031E-4 -1.2207031E-4 2.4414062E-4 -2.4414062E-4 2.4414062E-4l-33.259583 -2.4414062E-4l0 0c-1.2207031E-4 0 -3.0517578E-4 -1.2207031E-4 -3.0517578E-4 -3.0517578E-4l3.0517578E-4 -128.72412l0 0c0 -9.184448 7.4454956 -16.629913 16.629944 -16.629913z" fill-rule="evenodd"/><path fill="#ffffff" fill-opacity="0.0941" d="m883.76044 431.04462l0 0l0 0c4.4105225 0 8.640381 1.7520752 11.759094 4.8707886c3.1187134 3.1187134 4.8707886 7.3486023 4.8707886 11.759125l0 92.188995c0 1.2207031E-4 -1.2207031E-4 2.4414062E-4 -2.4414062E-4 2.4414062E-4l-33.259583 -2.4414062E-4l0 0c-1.2207031E-4 0 -3.0517578E-4 -1.2207031E-4 -3.0517578E-4 -3.0517578E-4l3.0517578E-4 -92.18869l0 0c0 -9.184448 7.4454956 -16.629913 16.629944 -16.629913z" fill-rule="evenodd"/><path fill="#ffffff" fill-opacity="0.0941" d="m883.76044 504.11795l0 0l0 0c4.4105225 0 8.640381 1.7520752 11.759094 4.8707886c3.1187134 3.118744 4.8707886 7.3486023 4.8707886 11.759125l0 19.118103c0 1.8310547E-4 -1.2207031E-4 3.0517578E-4 -2.4414062E-4 3.0517578E-4l-33.259583 -3.0517578E-4l0 0c-1.2207031E-4 0 -3.0517578E-4 -1.2207031E-4 -3.0517578E-4 -2.4414062E-4l3.0517578E-4 -19.117859l0 0c0 -9.184448 7.4454956 -16.629913 16.629944 -16.629913z" fill-rule="evenodd"/><path fill="#ffffff" fill-opacity="0.0941" d="m931.86615 467.5812l0 0l0 0c4.4105225 0 8.640381 1.7520752 11.759094 4.8707886c3.1187134 3.1187134 4.8707886 7.3486023 4.8707886 11.759125l0 55.653564c0 1.2207031E-4 -1.2207031E-4 2.4414062E-4 -2.4414062E-4 2.4414062E-4l-33.259583 -2.4414062E-4l0 0c-1.2207031E-4 0 -2.4414062E-4 -1.2207031E-4 -2.4414062E-4 -3.0517578E-4l2.4414062E-4 -55.65326l0 0c0 -9.184448 7.4454956 -16.629913 16.629944 -16.629913z" fill-rule="evenodd"/><path fill="#ffffff" fill-opacity="0.0941" d="m931.86615 394.50797l0 0l0 0c4.4105225 0 8.640381 1.7520752 11.759094 4.8707886c3.1187134 3.1187134 4.8707886 7.3486023 4.8707886 11.759125l0 128.72443c0 1.2207031E-4 -1.2207031E-4 2.4414062E-4 -2.4414062E-4 2.4414062E-4l-33.259583 -2.4414062E-4l0 0c-1.2207031E-4 0 -2.4414062E-4 -1.2207031E-4 -2.4414062E-4 -3.0517578E-4l2.4414062E-4 -128.72412l0 0c0 -9.184448 7.4454956 -16.629913 16.629944 -16.629913z" fill-rule="evenodd"/><path fill="#ffffff" fill-opacity="0.0941" d="m931.86615 431.04462l0 0l0 0c4.4105225 0 8.640381 1.7520752 11.759094 4.8707886c3.1187134 3.1187134 4.8707886 7.3486023 4.8707886 11.759125l0 92.188995c0 1.2207031E-4 -1.2207031E-4 2.4414062E-4 -2.4414062E-4 2.4414062E-4l-33.259583 -2.4414062E-4l0 0c-1.2207031E-4 0 -2.4414062E-4 -1.2207031E-4 -2.4414062E-4 -3.0517578E-4l2.4414062E-4 -92.18869l0 0c0 -9.184448 7.4454956 -16.629913 16.629944 -16.629913z" fill-rule="evenodd"/><path fill="#ffffff" fill-opacity="0.0941" d="m931.86615 357.97116l0 0l0 0c4.4105225 0 8.640381 1.7520752 11.759094 4.8707886c3.1187134 3.1187134 4.8707886 7.3486023 4.8707886 11.759155l0 165.25986c0 1.2207031E-4 -1.2207031E-4 2.4414062E-4 -2.4414062E-4 2.4414062E-4l-33.259583 -2.4414062E-4l0 0c-1.2207031E-4 0 -2.4414062E-4 -1.8310547E-4 -2.4414062E-4 -3.0517578E-4l2.4414062E-4 -165.25955l0 0c0 -9.184479 7.4454956 -16.629944 16.629944 -16.629944z" fill-rule="evenodd"/><path fill="#ffffff" fill-opacity="0.0941" d="m931.86615 504.11795l0 0l0 0c4.4105225 0 8.640381 1.7520752 11.759094 4.8707886c3.1187134 3.118744 4.8707886 7.3486023 4.8707886 11.759125l0 19.118103c0 1.8310547E-4 -1.2207031E-4 3.0517578E-4 -2.4414062E-4 3.0517578E-4l-33.259583 -3.0517578E-4l0 0c-1.2207031E-4 0 -2.4414062E-4 -1.2207031E-4 -2.4414062E-4 -2.4414062E-4l2.4414062E-4 -19.117859l0 0c0 -9.184448 7.4454956 -16.629913 16.629944 -16.629913z" fill-rule="evenodd"/><path fill="#ffffff" fill-opacity="0.0941" d="m888.2913 211.66142l0 0c0 -11.497971 9.320984 -20.818909 20.818909 -20.818909l0 0c5.5215454 0 10.816895 2.1934204 14.721191 6.0977173c3.9042969 3.9042969 6.0977173 9.1996765 6.0977173 14.721191l0 0c0 11.497955 -9.320923 20.818893 -20.818909 20.818893l0 0c-11.497925 0 -20.818909 -9.320938 -20.818909 -20.818893z" fill-rule="evenodd"/><path fill="#ffffff" fill-opacity="0.0941" d="m712.1872 386.9136l0 0c-2.58313 8.914825 -11.904114 14.047668 -20.818909 11.464539l0 0c-4.281067 -1.240448 -7.893982 -4.1307373 -10.044006 -8.035034c-2.1500244 -3.9042969 -2.6610107 -8.502808 -1.4205933 -12.783844l0 0c2.58313 -8.914825 11.904114 -14.047699 20.818909 -11.464569l0 0c8.914856 2.58313 14.0477295 11.904053 11.4646 20.818909z" fill-rule="evenodd"/><path fill="#ffffff" fill-opacity="0.0941" d="m836.2647 283.91425l0 0c18.415833 0 33.34485 14.928986 33.34485 33.34482l0 0c0 8.843628 -3.5131226 17.325012 -9.7664795 23.57837c-6.253357 6.253357 -14.734741 9.7664795 -23.57837 9.7664795l0 0c-18.415833 0 -33.344788 -14.928986 -33.344788 -33.34485l0 0c0 -18.415833 14.928955 -33.34482 33.344788 -33.34482z" fill-rule="evenodd"/><path fill="#ffffff" fill-opacity="0.0941" d="m813.7002 292.70868l0 0c9.801636 -9.008759 24.022583 -11.324127 36.17572 -5.8898926c12.153137 5.4342346 19.909363 17.5766 19.73059 30.888153l-33.341797 -0.44787598z" fill-rule="evenodd"/><path fill="#ffffff" fill-opacity="0.0941" d="m836.2682 296.56314l0 0c11.428162 0 20.692505 9.264374 20.692505 20.692505l0 0c0 5.4880066 -2.1801147 10.751221 -6.06073 14.631836c-3.8805542 3.8805847 -9.143799 6.0606995 -14.631775 6.0606995l0 0c-11.428162 0 -20.692505 -9.264374 -20.692505 -20.692535l0 0c0 -11.428131 9.264343 -20.692505 20.692505 -20.692505z" fill-rule="evenodd"/><path fill="#ffffff" fill-opacity="0.0941" d="m925.7254 199.11703l0 0c5.821594 7.7107086 5.573303 18.41333 -0.59954834 25.84578c-6.1728516 7.4324493 -16.64795 9.641418 -25.296387 5.334442c-8.6484375 -4.3069916 -13.197266 -13.998016 -10.984985 -23.402863c2.2122192 -9.404846 10.604187 -16.05185 20.265747 -16.05185l0 20.818893z" fill-rule="evenodd"/><path fill="#ffffff" fill-opacity="0.0941" d="m907.3644 83.878654l0 0c-10.624634 14.686798 -31.145874 17.981392 -45.83539 7.358696l0 0c-7.054199 -5.101204 -11.792603 -12.795204 -13.172852 -21.389412c-1.38031 -8.594212 0.7106323 -17.384636 5.812744 -24.437485l0 0c10.624695 -14.686794 31.145935 -17.981392 45.83545 -7.358692l0 0c14.689514 10.6227 17.984741 31.140102 7.3600464 45.826893z" fill-rule="evenodd"/><path fill="#ffffff" fill-opacity="0.0941" d="m847.9479 65.31851l0 0c-0.3305664 -16.088425 11.054443 -30.043423 26.884033 -32.952755c15.82959 -2.9093304 31.434082 6.085251 36.84778 21.23943c5.4136963 15.154175 -0.96032715 31.99752 -15.051453 39.773163l-15.861572 -28.733818z" fill-rule="evenodd"/><path fill="#ffffff" fill-opacity="0.0941" d="m566.91235 172.6892l0 0c0 -74.71064 60.56494 -135.27559 135.27557 -135.27559l0 0c35.87732 0 70.28522 14.252209 95.6543 39.621304c25.36908 25.369095 39.621338 59.776978 39.621338 95.65428l0 0c0 74.71065 -60.56494 135.27559 -135.27563 135.27559l0 0c-74.71063 0 -135.27557 -60.56494 -135.27557 -135.27559z" fill-rule="evenodd"/><path fill="#ffffff" fill-opacity="0.0941" d="m599.1709 103.03936l0 0c38.477295 -56.907074 115.801575 -71.84737 172.70868 -33.37008l0 0c27.327698 18.47744 46.196045 47.054 52.454163 79.44316c6.2581177 32.38916 -0.60668945 65.93776 -19.084106 93.2655l0 0c-38.477295 56.90706 -115.801575 71.84737 -172.70868 33.37007l0 0c-56.907043 -38.47728 -71.84735 -115.80159 -33.370056 -172.70865z" fill-rule="evenodd"/><path fill="#ffffff" fill-opacity="0.0941" d="m589.1371 247.39746l0 0c-27.312927 -41.5578 -29.621948 -94.75075 -6.0128174 -138.51898c23.60913 -43.76822 69.32922 -71.05369 119.05896 -71.05369l0 135.27559z" fill-rule="evenodd"/><path fill="#599191" d="m634.6362 126.97012l0 0c25.248535 -37.320534 75.970825 -47.10681 113.29132 -21.858269l0 0c17.921997 12.124779 30.293335 30.872429 34.39258 52.118675c4.099182 21.246246 -0.40948486 43.250717 -12.534302 61.17267l0 0c-25.248535 37.320526 -75.970764 47.10681 -113.29132 21.858261l0 0c-37.320557 -25.248535 -47.10681 -75.970795 -21.858276 -113.291336z" fill-rule="evenodd"/><path fill="#ffffff" fill-opacity="0.0941" d="m584.13855 106.620865l0 0c23.919128 -42.73689 69.06952 -69.20793 118.04468 -69.20793l0 135.27559z" fill-rule="evenodd"/><path fill="#ffffff" fill-opacity="0.0941" d="m680.3448 388.2298l0 0c-2.781372 -7.2862854 -0.18444824 -15.528687 6.2713623 -19.904572c6.4558716 -4.375885 15.073914 -3.73526 20.811768 1.5470886c5.737854 5.282318 7.0875854 13.818085 3.2594604 20.613068c-3.828186 6.7949524 -11.828125 10.063293 -19.319092 7.8927307l4.677124 -16.141724z" fill-rule="evenodd"/><path fill="#000000" fill-opacity="0.0" d="m86.509186 171.68373l446.77164 0l0 196.62993l-446.77164 0z" fill-rule="evenodd"/><path fill="#ffffff" d="m105.634186 258.4787l0 -26.01564l-8.96875 0l0 -6.0l25.875 0l0 6.0l-9.125 0l0 26.01564l-7.78125 0zm18.534927 0l0 -21.750015q0.671875 -0.5625 2.390625 -1.3125q1.734375 -0.75 3.96875 -1.34375q2.234375 -0.609375 4.484375 -0.609375q2.25 0 3.546875 0.34375q1.296875 0.328125 1.96875 0.859375l0 5.234375q-0.8125 -0.1875 -2.0625 -0.28125q-1.25 -0.09375 -2.59375 -0.125q-1.34375 -0.03125 -2.546875 0.03125q-1.1875 0.046875 -2.015625 0.1875l0 18.76564l-7.140625 0zm29.903412 0.71875q-2.21875 0 -4.15625 -0.40625q-1.9375 -0.40625 -3.40625 -1.34375q-1.46875 -0.9375 -2.28125 -2.5468903q-0.8125 -1.609375 -0.8125 -4.0q0 -2.265625 0.9375 -3.9375q0.9375 -1.6875 2.84375 -2.59375q1.921875 -0.921875 4.859375 -0.921875q1.625 0 3.15625 0.34375q1.546875 0.328125 2.765625 0.90625q1.21875 0.578125 1.953125 1.25l0.28125 3.453125q-0.953125 -0.5625 -2.296875 -0.890625q-1.34375 -0.34375 -2.890625 -0.34375q-2.34375 0 -3.4375 0.703125q-1.078125 0.6875 -1.078125 2.171875q0 0.90625 0.53125 1.625q0.53125 0.71875 1.421875 1.109375q0.890625 0.390625 1.84375 0.390625q2.453125 0 3.4375 -0.328125q0.984375 -0.34375 0.984375 -1.359375l0 -8.921875q0 -2.21875 -1.421875 -3.203125q-1.40625 -0.984375 -4.0 -0.984375q-2.125 0 -4.265625 0.75q-2.125 0.75 -3.46875 1.796875l0 -6.328125q1.25 -0.765625 3.859375 -1.4375q2.625 -0.6875 5.890625 -0.6875q1.140625 0 2.53125 0.203125q1.40625 0.1875 2.796875 0.703125q1.390625 0.5 2.5625 1.453125q1.171875 0.953125 1.890625 2.453125q0.71875 1.484375 0.71875 3.6875l-0.046875 11.46875q0 2.078125 -1.390625 3.3437653q-1.390625 1.265625 -4.015625 1.84375q-2.609375 0.578125 -6.296875 0.578125zm18.237305 -0.71875l0 -23.95314l7.15625 0l0.046875 23.95314l-7.203125 0zm-0.140625 -27.593765l0 -5.53125l7.390625 0l0 5.53125l-7.390625 0zm23.665527 28.54689q-4.234375 0 -6.296875 -1.984375q-2.0625 -2.0000153 -2.0625 -5.6406403l0 -12.140625l-3.546875 0l0 -5.46875l3.546875 0l0 -6.671875l7.484375 0l0 6.671875l5.328125 0l0 5.46875l-5.328125 0l0 11.234375q0 1.234375 0.53125 1.84375q0.53125 0.59375 1.78125 0.59375q0.71875 0 1.578125 -0.28125q0.859375 -0.296875 1.4375 -0.71875l0 6.1406403q-1.0 0.53125 -2.1875 0.734375q-1.171875 0.21875 -2.265625 0.21875zm20.87091 -0.234375q-3.640625 0 -6.453125 -1.5q-2.8125 -1.515625 -4.375 -4.3281403q-1.546875 -2.8125 -1.546875 -6.703125q0 -6.328125 3.140625 -9.8125q3.140625 -3.484375 9.0 -3.484375q4.03125 0 6.5 1.734375q2.46875 1.734375 3.625 5.046875q1.15625 3.296875 1.109375 8.0625l-18.484375 0l-0.765625 -4.5625l13.34375 0l-1.0625 2.25q-0.046875 -3.890625 -1.109375 -5.46875q-1.046875 -1.578125 -3.453125 -1.578125q-1.34375 0 -2.421875 0.671875q-1.078125 0.671875 -1.6875 2.234375q-0.59375 1.546875 -0.59375 4.28125q0 3.46875 1.65625 5.34375q1.65625 1.859375 5.3125 1.859375q1.34375 0 2.65625 -0.3125q1.328125 -0.3125 2.46875 -0.734375q1.15625 -0.4375 1.96875 -0.78125l0 6.1562653q-1.71875 0.71875 -3.859375 1.171875q-2.140625 0.453125 -4.96875 0.453125zm38.554184 -17.031265l0 16.312515l-7.15625 0l0 -14.875015q0 -0.921875 -0.265625 -1.6875q-0.265625 -0.765625 -0.796875 -1.3125q-0.53125 -0.5625 -1.4375 -0.875q-0.90625 -0.3125 -2.203125 -0.3125q-1.109375 0 -2.046875 0.265625q-0.9375 0.265625 -1.515625 0.5625l0 18.23439l-7.140625 0l0 -22.218765q0.90625 -0.484375 2.390625 -0.984375q1.5 -0.515625 3.265625 -0.890625q1.78125 -0.390625 3.578125 -0.625q1.796875 -0.234375 3.34375 -0.234375q3.265625 0 5.484375 0.84375q2.234375 0.828125 3.359375 2.703125q1.140625 1.875 1.140625 5.09375zm-7.34375 -4.28125q1.484375 -1.296875 3.59375 -2.28125q2.109375 -0.984375 4.453125 -1.53125q2.359375 -0.546875 4.375 -0.546875q3.265625 0 5.5 0.84375q2.234375 0.828125 3.359375 2.703125q1.125 1.875 1.125 5.09375l0 16.312515l-7.15625 0l0 -14.875015q0 -0.921875 -0.265625 -1.6875q-0.25 -0.765625 -0.78125 -1.3125q-0.53125 -0.5625 -1.453125 -0.875q-0.90625 -0.3125 -2.203125 -0.3125q-1.09375 0 -2.03125 0.3125q-0.9375 0.3125 -1.515625 0.796875l-7.0 -2.640625zm39.733734 21.312515q-3.640625 0 -6.453125 -1.5q-2.8125 -1.515625 -4.375 -4.3281403q-1.546875 -2.8125 -1.546875 -6.703125q0 -6.328125 3.140625 -9.8125q3.140625 -3.484375 9.0 -3.484375q4.03125 0 6.5 1.734375q2.46875 1.734375 3.625 5.046875q1.15625 3.296875 1.109375 8.0625l-18.484375 0l-0.765625 -4.5625l13.34375 0l-1.0625 2.25q-0.046875 -3.890625 -1.109375 -5.46875q-1.046875 -1.578125 -3.453125 -1.578125q-1.34375 0 -2.421875 0.671875q-1.078125 0.671875 -1.6875 2.234375q-0.59375 1.546875 -0.59375 4.28125q0 3.46875 1.65625 5.34375q1.65625 1.859375 5.3125 1.859375q1.34375 0 2.65625 -0.3125q1.328125 -0.3125 2.46875 -0.734375q1.15625 -0.4375 1.96875 -0.78125l0 6.1562653q-1.71875 0.71875 -3.859375 1.171875q-2.140625 0.453125 -4.96875 0.453125zm15.991669 -22.937515q0.90625 -0.484375 2.390625 -0.984375q1.5 -0.515625 3.265625 -0.890625q1.78125 -0.390625 3.578125 -0.625q1.796875 -0.234375 3.34375 -0.234375q3.265625 0 5.5625 0.84375q2.296875 0.828125 3.515625 2.703125q1.234375 1.875 1.234375 5.09375l0 16.312515l-7.15625 0l0 -14.875015q0 -0.921875 -0.265625 -1.6875q-0.25 -0.765625 -0.78125 -1.3125q-0.53125 -0.5625 -1.453125 -0.875q-0.90625 -0.3125 -2.203125 -0.3125q-1.09375 0 -2.203125 0.265625q-1.109375 0.265625 -1.6875 0.5625l0 18.23439l-7.140625 0l0 -22.218765zm39.169556 23.17189q-4.234375 0 -6.296875 -1.984375q-2.0625 -2.0000153 -2.0625 -5.6406403l0 -12.140625l-3.546875 0l0 -5.46875l3.546875 0l0 -6.671875l7.484375 0l0 6.671875l5.328125 0l0 5.46875l-5.328125 0l0 11.234375q0 1.234375 0.53125 1.84375q0.53125 0.59375 1.78125 0.59375q0.71875 0 1.578125 -0.28125q0.859375 -0.296875 1.4375 -0.71875l0 6.1406403q-1.0 0.53125 -2.1875 0.734375q-1.171875 0.21875 -2.265625 0.21875zm34.743927 -0.234375q-2.828125 0 -5.203125 -0.625q-2.375 -0.625 -4.109375 -2.078125q-1.71875 -1.4687653 -2.703125 -4.0156403q-0.984375 -2.546875 -0.984375 -6.34375q0 -5.890625 2.890625 -9.296875q2.90625 -3.421875 8.71875 -3.421875q0.765625 0 2.015625 0.125q1.25 0.125 2.59375 0.609375q1.34375 0.46875 2.40625 1.625l-1.453125 2.203125l0 -13.765625l7.109375 0l0 27.921875q0 1.78125 -0.96875 3.109375q-0.953125 1.3125153 -2.5625 2.1875153q-1.609375 0.859375 -3.625 1.3125q-2.015625 0.453125 -4.125 0.453125zm0.296875 -6.0000153q1.71875 0 2.796875 -0.453125q1.078125 -0.453125 1.078125 -1.375l0 -11.171875q-0.859375 -0.484375 -1.84375 -0.75q-0.984375 -0.265625 -1.890625 -0.265625q-2.015625 0 -3.40625 0.671875q-1.390625 0.671875 -2.09375 2.265625q-0.6875 1.578125 -0.6875 4.265625q0 2.109375 0.5625 3.625q0.578125 1.515625 1.890625 2.359375q1.328125 0.828125 3.59375 0.828125zm28.31018 6.0000153q-3.640625 0 -6.453125 -1.5q-2.8125 -1.515625 -4.375 -4.3281403q-1.546875 -2.8125 -1.546875 -6.703125q0 -6.328125 3.140625 -9.8125q3.140625 -3.484375 9.0 -3.484375q4.03125 0 6.5 1.734375q2.46875 1.734375 3.625 5.046875q1.15625 3.296875 1.109375 8.0625l-18.484375 0l-0.765625 -4.5625l13.34375 0l-1.0625 2.25q-0.046875 -3.890625 -1.109375 -5.46875q-1.046875 -1.578125 -3.453125 -1.578125q-1.34375 0 -2.421875 0.671875q-1.078125 0.671875 -1.6875 2.234375q-0.59375 1.546875 -0.59375 4.28125q0 3.46875 1.65625 5.34375q1.65625 1.859375 5.3125 1.859375q1.34375 0 2.65625 -0.3125q1.328125 -0.3125 2.46875 -0.734375q1.15625 -0.4375 1.96875 -0.78125l0 6.1562653q-1.71875 0.71875 -3.859375 1.171875q-2.140625 0.453125 -4.96875 0.453125z" fill-rule="nonzero"/><path fill="#ffffff" d="m110.290436 316.79742q-2.828125 0 -5.203125 -0.625q-2.375 -0.625 -4.109375 -2.078125q-1.71875 -1.46875 -2.703125 -4.015625q-0.984375 -2.546875 -0.984375 -6.34375q0 -5.890625 2.890625 -9.296875q2.90625 -3.421875 8.71875 -3.421875q0.765625 0 2.015625 0.125q1.25 0.125 2.59375 0.609375q1.34375 0.46875 2.40625 1.625l-1.453125 2.203125l0 -13.765625l7.109375 0l0 27.921875q0 1.78125 -0.96875 3.109375q-0.953125 1.3125 -2.5625 2.1875q-1.609375 0.859375 -3.625 1.3125q-2.015625 0.453125 -4.125 0.453125zm0.296875 -6.0q1.71875 0 2.796875 -0.453125q1.078125 -0.453125 1.078125 -1.375l0 -11.171875q-0.859375 -0.484375 -1.84375 -0.75q-0.984375 -0.265625 -1.890625 -0.265625q-2.015625 0 -3.40625 0.671875q-1.390625 0.671875 -2.09375 2.265625q-0.6875 1.578125 -0.6875 4.265625q0 2.109375 0.5625 3.625q0.578125 1.515625 1.890625 2.359375q1.328125 0.828125 3.59375 0.828125zm28.263306 6.0q-6.140625 0 -9.234375 -3.28125q-3.09375 -3.296875 -3.09375 -9.671875q0 -6.875 3.140625 -9.875q3.140625 -3.0 9.1875 -3.0q4.078125 0 6.84375 1.375q2.765625 1.359375 4.171875 4.203125q1.421875 2.828125 1.421875 7.296875q0 6.375 -3.21875 9.671875q-3.21875 3.28125 -9.21875 3.28125zm0 -5.703125q1.78125 0 2.953125 -0.84375q1.171875 -0.84375 1.765625 -2.453125q0.609375 -1.609375 0.609375 -3.953125q0 -2.6875 -0.609375 -4.25q-0.59375 -1.5625 -1.796875 -2.25q-1.1875 -0.703125 -2.921875 -0.703125q-1.828125 0 -2.984375 0.71875q-1.140625 0.71875 -1.703125 2.28125q-0.546875 1.5625 -0.546875 4.203125q0 3.640625 1.265625 5.453125q1.28125 1.796875 3.96875 1.796875zm17.382553 -17.234375q0.90625 -0.484375 2.390625 -0.984375q1.5 -0.515625 3.265625 -0.890625q1.78125 -0.390625 3.578125 -0.625q1.796875 -0.234375 3.34375 -0.234375q3.265625 0 5.5625 0.84375q2.296875 0.828125 3.515625 2.703125q1.234375 1.875 1.234375 5.09375l0 16.3125l-7.15625 0l0 -14.875q0 -0.921875 -0.265625 -1.6875q-0.25 -0.765625 -0.78125 -1.3125q-0.53125 -0.5625 -1.453125 -0.875q-0.90625 -0.3125 -2.203125 -0.3125q-1.09375 0 -2.203125 0.265625q-1.109375 0.265625 -1.6875 0.5625l0 18.234375l-7.140625 0l0 -22.21875zm29.232056 0q0.90625 -0.484375 2.390625 -0.984375q1.5 -0.515625 3.265625 -0.890625q1.78125 -0.390625 3.578125 -0.625q1.796875 -0.234375 3.34375 -0.234375q3.265625 0 5.5625 0.84375q2.296875 0.828125 3.515625 2.703125q1.234375 1.875 1.234375 5.09375l0 16.3125l-7.15625 0l0 -14.875q0 -0.921875 -0.265625 -1.6875q-0.25 -0.765625 -0.78125 -1.3125q-0.53125 -0.5625 -1.453125 -0.875q-0.90625 -0.3125 -2.203125 -0.3125q-1.09375 0 -2.203125 0.265625q-1.109375 0.265625 -1.6875 0.5625l0 18.234375l-7.140625 0l0 -22.21875zm40.21643 22.9375q-3.640625 0 -6.453125 -1.5q-2.8125 -1.515625 -4.375 -4.328125q-1.546875 -2.8125 -1.546875 -6.703125q0 -6.328125 3.140625 -9.8125q3.140625 -3.484375 9.0 -3.484375q4.03125 0 6.5 1.734375q2.46875 1.734375 3.625 5.046875q1.15625 3.296875 1.109375 8.0625l-18.484375 0l-0.765625 -4.5625l13.34375 0l-1.0625 2.25q-0.046875 -3.890625 -1.109375 -5.46875q-1.046875 -1.578125 -3.453125 -1.578125q-1.34375 0 -2.421875 0.671875q-1.078125 0.671875 -1.6875 2.234375q-0.59375 1.546875 -0.59375 4.28125q0 3.46875 1.65625 5.34375q1.65625 1.859375 5.3125 1.859375q1.34375 0 2.65625 -0.3125q1.328125 -0.3125 2.46875 -0.734375q1.15625 -0.4375 1.96875 -0.78125l0 6.15625q-1.71875 0.71875 -3.859375 1.171875q-2.140625 0.453125 -4.96875 0.453125zm-2.59375 -27.84375l2.265625 -5.953125l7.0 0l-5.328125 5.953125l-3.9375 0zm29.569809 27.84375q-3.640625 0 -6.453125 -1.5q-2.8125 -1.515625 -4.375 -4.328125q-1.546875 -2.8125 -1.546875 -6.703125q0 -6.328125 3.140625 -9.8125q3.140625 -3.484375 9.0 -3.484375q4.03125 0 6.5 1.734375q2.46875 1.734375 3.625 5.046875q1.15625 3.296875 1.109375 8.0625l-18.484375 0l-0.765625 -4.5625l13.34375 0l-1.0625 2.25q-0.046875 -3.890625 -1.109375 -5.46875q-1.046875 -1.578125 -3.453125 -1.578125q-1.34375 0 -2.421875 0.671875q-1.078125 0.671875 -1.6875 2.234375q-0.59375 1.546875 -0.59375 4.28125q0 3.46875 1.65625 5.34375q1.65625 1.859375 5.3125 1.859375q1.34375 0 2.65625 -0.3125q1.328125 -0.3125 2.46875 -0.734375q1.15625 -0.4375 1.96875 -0.78125l0 6.15625q-1.71875 0.71875 -3.859375 1.171875q-2.140625 0.453125 -4.96875 0.453125zm23.194824 0q-2.59375 0 -4.453125 -0.5625q-1.84375 -0.546875 -3.46875 -1.21875l0 -6.28125q1.0 0.671875 2.25 1.375q1.25 0.6875 2.75 1.125q1.515625 0.421875 3.203125 0.421875q1.734375 0 2.421875 -0.59375q0.703125 -0.59375 0.703125 -1.46875q0 -0.8125 -0.71875 -1.3125q-0.71875 -0.5 -1.875 -0.828125q-1.15625 -0.34375 -2.453125 -0.640625q-1.15625 -0.234375 -2.3125 -0.734375q-1.140625 -0.515625 -2.0625 -1.375q-0.90625 -0.859375 -1.453125 -2.125q-0.546875 -1.28125 -0.546875 -3.109375q0 -2.34375 0.90625 -3.90625q0.90625 -1.5625 2.390625 -2.515625q1.5 -0.96875 3.21875 -1.375q1.734375 -0.40625 3.359375 -0.359375q2.984375 0.09375 4.734375 0.65625q1.75 0.546875 3.1875 1.40625l0 5.609375q-1.625 -0.90625 -3.234375 -1.6875q-1.609375 -0.796875 -3.671875 -0.796875q-1.875 0 -2.6875 0.578125q-0.8125 0.5625 -0.8125 1.53125q0 0.90625 0.546875 1.4375q0.546875 0.53125 1.453125 0.84375q0.921875 0.3125 2.03125 0.59375q1.1875 0.296875 2.453125 0.703125q1.28125 0.40625 2.40625 1.15625q1.140625 0.734375 1.828125 2.0625q0.703125 1.3125 0.703125 3.46875q-0.046875 2.9375 -1.59375 4.6875q-1.53125 1.75 -3.953125 2.5q-2.421875 0.734375 -5.25 0.734375zm40.165314 0q-3.640625 0 -6.453125 -1.5q-2.8125 -1.515625 -4.375 -4.328125q-1.546875 -2.8125 -1.546875 -6.703125q0 -6.328125 3.140625 -9.8125q3.140625 -3.484375 9.0 -3.484375q4.03125 0 6.5 1.734375q2.46875 1.734375 3.625 5.046875q1.15625 3.296875 1.109375 8.0625l-18.484375 0l-0.765625 -4.5625l13.34375 0l-1.0625 2.25q-0.046875 -3.890625 -1.109375 -5.46875q-1.046875 -1.578125 -3.453125 -1.578125q-1.34375 0 -2.421875 0.671875q-1.078125 0.671875 -1.6875 2.234375q-0.59375 1.546875 -0.59375 4.28125q0 3.46875 1.65625 5.34375q1.65625 1.859375 5.3125 1.859375q1.34375 0 2.65625 -0.3125q1.328125 -0.3125 2.46875 -0.734375q1.15625 -0.4375 1.96875 -0.78125l0 6.15625q-1.71875 0.71875 -3.859375 1.171875q-2.140625 0.453125 -4.96875 0.453125zm15.991699 -22.9375q0.90625 -0.484375 2.390625 -0.984375q1.5 -0.515625 3.265625 -0.890625q1.78125 -0.390625 3.578125 -0.625q1.796875 -0.234375 3.34375 -0.234375q3.265625 0 5.5625 0.84375q2.296875 0.828125 3.515625 2.703125q1.234375 1.875 1.234375 5.09375l0 16.3125l-7.15625 0l0 -14.875q0 -0.921875 -0.265625 -1.6875q-0.25 -0.765625 -0.78125 -1.3125q-0.53125 -0.5625 -1.453125 -0.875q-0.90625 -0.3125 -2.203125 -0.3125q-1.09375 0 -2.203125 0.265625q-1.109375 0.265625 -1.6875 0.5625l0 18.234375l-7.140625 0l0 -22.21875zm52.417603 23.171875q-4.234375 0 -6.296875 -1.984375q-2.0625 -2.0 -2.0625 -5.640625l0 -12.140625l-3.546875 0l0 -5.46875l3.546875 0l0 -6.671875l7.484375 0l0 6.671875l5.328125 0l0 5.46875l-5.328125 0l0 11.234375q0 1.234375 0.53125 1.84375q0.53125 0.59375 1.78125 0.59375q0.71875 0 1.578125 -0.28125q0.859375 -0.296875 1.4375 -0.71875l0 6.140625q-1.0 0.53125 -2.1875 0.734375q-1.171875 0.21875 -2.265625 0.21875zm19.24591 -0.234375q-2.21875 0 -4.15625 -0.40625q-1.9375 -0.40625 -3.40625 -1.34375q-1.46875 -0.9375 -2.28125 -2.546875q-0.8125 -1.609375 -0.8125 -4.0q0 -2.265625 0.9375 -3.9375q0.9375 -1.6875 2.84375 -2.59375q1.921875 -0.921875 4.859375 -0.921875q1.625 0 3.15625 0.34375q1.546875 0.328125 2.765625 0.90625q1.21875 0.578125 1.953125 1.25l0.28125 3.453125q-0.953125 -0.5625 -2.296875 -0.890625q-1.34375 -0.34375 -2.890625 -0.34375q-2.34375 0 -3.4375 0.703125q-1.078125 0.6875 -1.078125 2.171875q0 0.90625 0.53125 1.625q0.53125 0.71875 1.421875 1.109375q0.890625 0.390625 1.84375 0.390625q2.453125 0 3.4375 -0.328125q0.984375 -0.34375 0.984375 -1.359375l0 -8.921875q0 -2.21875 -1.421875 -3.203125q-1.40625 -0.984375 -4.0 -0.984375q-2.125 0 -4.265625 0.75q-2.125 0.75 -3.46875 1.796875l0 -6.328125q1.25 -0.765625 3.859375 -1.4375q2.625 -0.6875 5.890625 -0.6875q1.140625 0 2.53125 0.203125q1.40625 0.1875 2.796875 0.703125q1.390625 0.5 2.5625 1.453125q1.171875 0.953125 1.890625 2.453125q0.71875 1.484375 0.71875 3.6875l-0.046875 11.46875q0 2.078125 -1.390625 3.34375q-1.390625 1.265625 -4.015625 1.84375q-2.609375 0.578125 -6.296875 0.578125zm29.22168 0q-2.015625 0 -4.015625 -0.265625q-1.984375 -0.265625 -3.59375 -0.953125q-1.59375 -0.703125 -2.5625 -1.921875q-0.953125 -1.21875 -0.953125 -3.1875l0 -27.65625l7.0 0l0 13.25l-1.34375 -2.25q0.875 -1.015625 2.21875 -1.609375q1.34375 -0.609375 2.734375 -0.84375q1.390625 -0.234375 2.296875 -0.234375q5.375 0 8.1875 3.234375q2.8125 3.234375 2.8125 9.484375q0 3.640625 -0.96875 6.140625q-0.953125 2.5 -2.6875 3.984375q-1.71875 1.484375 -4.03125 2.15625q-2.296875 0.671875 -5.09375 0.671875zm-0.09375 -5.953125q2.109375 0 3.359375 -0.828125q1.25 -0.84375 1.796875 -2.328125q0.5625 -1.5 0.5625 -3.421875q0 -2.734375 -0.71875 -4.359375q-0.71875 -1.640625 -1.96875 -2.359375q-1.25 -0.71875 -2.875 -0.71875q-0.96875 0 -2.125 0.25q-1.140625 0.234375 -2.0625 0.765625l0 10.75q0 0.859375 0.53125 1.34375q0.53125 0.484375 1.46875 0.703125q0.9375 0.203125 2.03125 0.203125zm24.910553 5.234375l-7.09375 0l0 -33.453125l7.09375 0l0 33.453125zm17.330658 0.71875q-3.640625 0 -6.453125 -1.5q-2.8125 -1.515625 -4.375 -4.328125q-1.546875 -2.8125 -1.546875 -6.703125q0 -6.328125 3.140625 -9.8125q3.140625 -3.484375 9.0 -3.484375q4.03125 0 6.5 1.734375q2.46875 1.734375 3.625 5.046875q1.15625 3.296875 1.109375 8.0625l-18.484375 0l-0.765625 -4.5625l13.34375 0l-1.0625 2.25q-0.046875 -3.890625 -1.109375 -5.46875q-1.046875 -1.578125 -3.453125 -1.578125q-1.34375 0 -2.421875 0.671875q-1.078125 0.671875 -1.6875 2.234375q-0.59375 1.546875 -0.59375 4.28125q0 3.46875 1.65625 5.34375q1.65625 1.859375 5.3125 1.859375q1.34375 0 2.65625 -0.3125q1.328125 -0.3125 2.46875 -0.734375q1.15625 -0.4375 1.96875 -0.78125l0 6.15625q-1.71875 0.71875 -3.859375 1.171875q-2.140625 0.453125 -4.96875 0.453125zm23.194824 0q-2.59375 0 -4.453125 -0.5625q-1.84375 -0.546875 -3.46875 -1.21875l0 -6.28125q1.0 0.671875 2.25 1.375q1.25 0.6875 2.75 1.125q1.515625 0.421875 3.203125 0.421875q1.734375 0 2.421875 -0.59375q0.703125 -0.59375 0.703125 -1.46875q0 -0.8125 -0.71875 -1.3125q-0.71875 -0.5 -1.875 -0.828125q-1.15625 -0.34375 -2.453125 -0.640625q-1.15625 -0.234375 -2.3125 -0.734375q-1.140625 -0.515625 -2.0625 -1.375q-0.90625 -0.859375 -1.453125 -2.125q-0.546875 -1.28125 -0.546875 -3.109375q0 -2.34375 0.90625 -3.90625q0.90625 -1.5625 2.390625 -2.515625q1.5 -0.96875 3.21875 -1.375q1.734375 -0.40625 3.359375 -0.359375q2.984375 0.09375 4.734375 0.65625q1.75 0.546875 3.1875 1.40625l0 5.609375q-1.625 -0.90625 -3.234375 -1.6875q-1.609375 -0.796875 -3.671875 -0.796875q-1.875 0 -2.6875 0.578125q-0.8125 0.5625 -0.8125 1.53125q0 0.90625 0.546875 1.4375q0.546875 0.53125 1.453125 0.84375q0.921875 0.3125 2.03125 0.59375q1.1875 0.296875 2.453125 0.703125q1.28125 0.40625 2.40625 1.15625q1.140625 0.734375 1.828125 2.0625q0.703125 1.3125 0.703125 3.46875q-0.046875 2.9375 -1.59375 4.6875q-1.53125 1.75 -3.953125 2.5q-2.421875 0.734375 -5.25 0.734375z" fill-rule="nonzero"/><path fill="#000000" fill-opacity="0.0" d="m86.509186 377.5643l446.77164 0l0 73.00787l-446.77164 0z" fill-rule="evenodd"/><path fill="#ffffff" d="m97.977936 411.0287q-0.421875 0 -0.640625 -0.21875q-0.203125 -0.21875 -0.203125 -0.65625l0 -12.75q0 -0.421875 0.203125 -0.640625q0.21875 -0.234375 0.625 -0.234375q0.421875 0 0.640625 0.234375q0.234375 0.21875 0.234375 0.640625l0 2.03125l-0.234375 -0.296875q0.34375 -1.21875 1.34375 -1.9375q1.015625 -0.71875 2.4375 -0.71875q1.375 0 2.40625 0.65625q1.046875 0.65625 1.609375 1.859375q0.5625 1.203125 0.5625 2.859375q0 1.640625 -0.5625 2.859375q-0.5625 1.203125 -1.59375 1.859375q-1.015625 0.65625 -2.421875 0.65625q-1.421875 0 -2.421875 -0.703125q-1.0 -0.71875 -1.359375 -1.921875l0.25 0l0 5.546875q0 0.4375 -0.234375 0.65625q-0.234375 0.21875 -0.640625 0.21875zm4.03125 -5.171875q0.984375 0 1.703125 -0.46875q0.71875 -0.484375 1.109375 -1.375q0.390625 -0.890625 0.390625 -2.15625q0 -1.9375 -0.859375 -2.953125q-0.859375 -1.03125 -2.34375 -1.03125q-0.953125 0 -1.6875 0.46875q-0.71875 0.453125 -1.109375 1.34375q-0.390625 0.875 -0.390625 2.171875q0 1.921875 0.875 2.96875q0.875 1.03125 2.3125 1.03125zm10.824966 1.375q-1.078125 0 -1.921875 -0.40625q-0.828125 -0.421875 -1.328125 -1.140625q-0.484375 -0.734375 -0.484375 -1.625q0 -1.15625 0.578125 -1.8125q0.59375 -0.65625 1.9375 -0.9375q1.359375 -0.28125 3.703125 -0.28125l0.96875 0l0 1.125l-0.9375 0q-1.734375 0 -2.734375 0.171875q-0.984375 0.15625 -1.375 0.546875q-0.390625 0.375 -0.390625 1.078125q0 0.875 0.59375 1.4375q0.609375 0.546875 1.65625 0.546875q0.859375 0 1.5 -0.40625q0.65625 -0.40625 1.03125 -1.109375q0.375 -0.703125 0.375 -1.625l0 -2.421875q0 -1.328125 -0.53125 -1.90625q-0.53125 -0.59375 -1.75 -0.59375q-0.75 0 -1.5 0.203125q-0.734375 0.1875 -1.578125 0.609375q-0.296875 0.140625 -0.515625 0.09375q-0.203125 -0.046875 -0.328125 -0.21875q-0.125 -0.171875 -0.15625 -0.390625q-0.015625 -0.234375 0.09375 -0.4375q0.125 -0.21875 0.375 -0.34375q0.9375 -0.46875 1.859375 -0.6875q0.921875 -0.21875 1.75 -0.21875q1.34375 0 2.21875 0.4375q0.875 0.4375 1.296875 1.328125q0.421875 0.890625 0.421875 2.265625l0 5.78125q0 0.4375 -0.203125 0.671875q-0.1875 0.234375 -0.578125 0.234375q-0.40625 0 -0.625 -0.234375q-0.203125 -0.234375 -0.203125 -0.671875l0 -1.65625l0.1875 0q-0.171875 0.8125 -0.65625 1.390625q-0.46875 0.5625 -1.171875 0.890625q-0.703125 0.3125 -1.578125 0.3125zm8.91333 -0.03125q-0.4375 0 -0.65625 -0.234375q-0.21875 -0.234375 -0.21875 -0.671875l0 -8.890625q0 -0.421875 0.203125 -0.640625q0.21875 -0.234375 0.625 -0.234375q0.40625 0 0.625 0.234375q0.234375 0.21875 0.234375 0.640625l0 1.734375l-0.21875 0q0.34375 -1.265625 1.296875 -1.9375q0.96875 -0.6875 2.375 -0.734375q0.3125 -0.015625 0.5 0.140625q0.203125 0.15625 0.21875 0.546875q0.015625 0.359375 -0.171875 0.578125q-0.1875 0.203125 -0.59375 0.25l-0.34375 0.046875q-1.453125 0.125 -2.234375 0.921875q-0.765625 0.796875 -0.765625 2.1875l0 5.15625q0 0.4375 -0.234375 0.671875q-0.21875 0.234375 -0.640625 0.234375zm18.997559 0.03125q-2.21875 0 -3.796875 -0.9375q-1.578125 -0.9375 -2.421875 -2.65625q-0.84375 -1.734375 -0.84375 -4.125q0 -1.796875 0.484375 -3.203125q0.484375 -1.421875 1.390625 -2.40625q0.90625 -1.0 2.21875 -1.546875q1.328125 -0.546875 2.96875 -0.546875q1.328125 0 2.515625 0.375q1.203125 0.375 2.078125 1.109375q0.265625 0.203125 0.359375 0.46875q0.109375 0.265625 0.03125 0.515625q-0.078125 0.25 -0.265625 0.40625q-0.171875 0.15625 -0.4375 0.15625q-0.25 0 -0.5625 -0.203125q-0.78125 -0.625 -1.703125 -0.921875q-0.90625 -0.296875 -1.96875 -0.296875q-1.6875 0 -2.859375 0.71875q-1.171875 0.703125 -1.78125 2.078125q-0.59375 1.359375 -0.59375 3.296875q0 1.9375 0.59375 3.3125q0.609375 1.375 1.78125 2.09375q1.171875 0.71875 2.859375 0.71875q1.046875 0 1.984375 -0.3125q0.9375 -0.3125 1.71875 -0.921875q0.328125 -0.21875 0.578125 -0.203125q0.265625 0 0.421875 0.15625q0.171875 0.15625 0.25 0.390625q0.078125 0.234375 0 0.484375q-0.078125 0.25 -0.328125 0.453125q-0.890625 0.765625 -2.109375 1.15625q-1.203125 0.390625 -2.5625 0.390625zm8.463257 -0.03125q-0.421875 0 -0.640625 -0.234375q-0.203125 -0.234375 -0.203125 -0.671875l0 -13.5625q0 -0.421875 0.203125 -0.640625q0.21875 -0.234375 0.640625 -0.234375q0.40625 0 0.640625 0.234375q0.234375 0.21875 0.234375 0.640625l0 6.25l-0.265625 0q0.4375 -1.234375 1.453125 -1.859375q1.015625 -0.640625 2.34375 -0.640625q1.234375 0 2.046875 0.453125q0.828125 0.453125 1.234375 1.359375q0.40625 0.90625 0.40625 2.28125l0 5.71875q0 0.4375 -0.234375 0.671875q-0.21875 0.234375 -0.625 0.234375q-0.421875 0 -0.65625 -0.234375q-0.21875 -0.234375 -0.21875 -0.671875l0 -5.609375q0 -1.453125 -0.5625 -2.125q-0.5625 -0.671875 -1.796875 -0.671875q-1.4375 0 -2.28125 0.890625q-0.84375 0.890625 -0.84375 2.359375l0 5.15625q0 0.90625 -0.875 0.90625zm14.536301 0.03125q-1.078125 0 -1.921875 -0.40625q-0.828125 -0.421875 -1.328125 -1.140625q-0.484375 -0.734375 -0.484375 -1.625q0 -1.15625 0.578125 -1.8125q0.59375 -0.65625 1.9375 -0.9375q1.359375 -0.28125 3.703125 -0.28125l0.96875 0l0 1.125l-0.9375 0q-1.734375 0 -2.734375 0.171875q-0.984375 0.15625 -1.375 0.546875q-0.390625 0.375 -0.390625 1.078125q0 0.875 0.59375 1.4375q0.609375 0.546875 1.65625 0.546875q0.859375 0 1.5 -0.40625q0.65625 -0.40625 1.03125 -1.109375q0.375 -0.703125 0.375 -1.625l0 -2.421875q0 -1.328125 -0.53125 -1.90625q-0.53125 -0.59375 -1.75 -0.59375q-0.75 0 -1.5 0.203125q-0.734375 0.1875 -1.578125 0.609375q-0.296875 0.140625 -0.515625 0.09375q-0.203125 -0.046875 -0.328125 -0.21875q-0.125 -0.171875 -0.15625 -0.390625q-0.015625 -0.234375 0.09375 -0.4375q0.125 -0.21875 0.375 -0.34375q0.9375 -0.46875 1.859375 -0.6875q0.921875 -0.21875 1.75 -0.21875q1.34375 0 2.21875 0.4375q0.875 0.4375 1.296875 1.328125q0.421875 0.890625 0.421875 2.265625l0 5.78125q0 0.4375 -0.203125 0.671875q-0.1875 0.234375 -0.578125 0.234375q-0.40625 0 -0.625 -0.234375q-0.203125 -0.234375 -0.203125 -0.671875l0 -1.65625l0.1875 0q-0.171875 0.8125 -0.65625 1.390625q-0.46875 0.5625 -1.171875 0.890625q-0.703125 0.3125 -1.578125 0.3125zm8.91333 -0.03125q-0.4375 0 -0.65625 -0.234375q-0.21875 -0.234375 -0.21875 -0.671875l0 -8.890625q0 -0.421875 0.203125 -0.640625q0.21875 -0.234375 0.625 -0.234375q0.40625 0 0.625 0.234375q0.234375 0.21875 0.234375 0.640625l0 1.734375l-0.21875 0q0.34375 -1.265625 1.296875 -1.9375q0.96875 -0.6875 2.375 -0.734375q0.3125 -0.015625 0.5 0.140625q0.203125 0.15625 0.21875 0.546875q0.015625 0.359375 -0.171875 0.578125q-0.1875 0.203125 -0.59375 0.25l-0.34375 0.046875q-1.453125 0.125 -2.234375 0.921875q-0.765625 0.796875 -0.765625 2.1875l0 5.15625q0 0.4375 -0.234375 0.671875q-0.21875 0.234375 -0.640625 0.234375zm9.916748 0.03125q-1.546875 0 -2.359375 -0.9375q-0.796875 -0.9375 -0.796875 -2.6875l0 -10.875q0 -0.421875 0.203125 -0.640625q0.21875 -0.234375 0.640625 -0.234375q0.40625 0 0.640625 0.234375q0.234375 0.21875 0.234375 0.640625l0 10.75q0 1.15625 0.453125 1.71875q0.46875 0.5625 1.359375 0.5625q0.203125 0 0.34375 -0.015625q0.15625 -0.03125 0.296875 -0.03125q0.234375 -0.015625 0.328125 0.109375q0.109375 0.125 0.109375 0.515625q0 0.390625 -0.171875 0.578125q-0.171875 0.1875 -0.5625 0.25q-0.171875 0.03125 -0.359375 0.046875q-0.1875 0.015625 -0.359375 0.015625zm7.722107 0q-1.640625 0 -2.828125 -0.640625q-1.1875 -0.65625 -1.84375 -1.84375q-0.640625 -1.203125 -0.640625 -2.859375q0 -1.625 0.640625 -2.828125q0.640625 -1.203125 1.75 -1.890625q1.125 -0.6875 2.59375 -0.6875q1.046875 0 1.875 0.359375q0.84375 0.34375 1.421875 1.015625q0.59375 0.65625 0.890625 1.59375q0.3125 0.9375 0.3125 2.109375q0 0.34375 -0.1875 0.515625q-0.1875 0.15625 -0.5625 0.15625l-7.421875 0l0 -1.140625l7.03125 0l-0.34375 0.28125q0 -1.15625 -0.34375 -1.953125q-0.34375 -0.796875 -1.0 -1.21875q-0.640625 -0.4375 -1.625 -0.4375q-1.09375 0 -1.859375 0.5q-0.75 0.5 -1.140625 1.390625q-0.375 0.890625 -0.375 2.0625l0 0.125q0 1.96875 0.953125 3.0q0.953125 1.015625 2.703125 1.015625q0.71875 0 1.4375 -0.1875q0.71875 -0.203125 1.390625 -0.65625q0.296875 -0.1875 0.546875 -0.171875q0.25 0 0.390625 0.140625q0.15625 0.140625 0.203125 0.34375q0.0625 0.203125 -0.046875 0.4375q-0.09375 0.234375 -0.359375 0.40625q-0.703125 0.515625 -1.671875 0.796875q-0.953125 0.265625 -1.890625 0.265625zm10.174728 0q-0.96875 0 -1.9375 -0.234375q-0.96875 -0.234375 -1.796875 -0.8125q-0.21875 -0.140625 -0.3125 -0.34375q-0.078125 -0.203125 -0.046875 -0.40625q0.03125 -0.203125 0.171875 -0.34375q0.140625 -0.15625 0.34375 -0.1875q0.203125 -0.03125 0.453125 0.09375q0.84375 0.515625 1.609375 0.71875q0.78125 0.203125 1.546875 0.203125q1.21875 0 1.828125 -0.453125q0.625 -0.453125 0.625 -1.21875q0 -0.59375 -0.40625 -0.9375q-0.40625 -0.359375 -1.28125 -0.546875l-1.9375 -0.4375q-1.34375 -0.265625 -2.0 -0.953125q-0.640625 -0.6875 -0.640625 -1.765625q0 -0.96875 0.5 -1.65625q0.5 -0.703125 1.421875 -1.078125q0.921875 -0.390625 2.125 -0.390625q0.9375 0 1.78125 0.25q0.84375 0.25 1.53125 0.78125q0.21875 0.140625 0.28125 0.34375q0.078125 0.203125 0.015625 0.40625q-0.046875 0.203125 -0.203125 0.34375q-0.140625 0.140625 -0.359375 0.171875q-0.203125 0.015625 -0.4375 -0.140625q-0.640625 -0.421875 -1.3125 -0.625q-0.65625 -0.203125 -1.296875 -0.203125q-1.1875 0 -1.8125 0.46875q-0.609375 0.46875 -0.609375 1.234375q0 0.59375 0.375 0.984375q0.390625 0.390625 1.203125 0.546875l1.9375 0.40625q1.390625 0.296875 2.078125 0.953125q0.6875 0.65625 0.6875 1.765625q0 1.40625 -1.125 2.234375q-1.125 0.828125 -3.0 0.828125zm7.667816 1.84375q-0.203125 0.265625 -0.4375 0.3125q-0.234375 0.046875 -0.40625 -0.078125q-0.171875 -0.125 -0.1875 -0.375q-0.015625 -0.234375 0.203125 -0.5q0.34375 -0.453125 0.46875 -0.921875q0.125 -0.453125 0.125 -0.828125l0.09375 0.4375q-0.5625 0 -0.890625 -0.328125q-0.328125 -0.328125 -0.328125 -0.84375q0 -0.5 0.296875 -0.828125q0.3125 -0.34375 0.828125 -0.34375q0.5625 0 0.875 0.375q0.328125 0.375 0.328125 1.078125q0 0.453125 -0.09375 0.921875q-0.078125 0.484375 -0.296875 0.96875q-0.21875 0.5 -0.578125 0.953125zm10.412399 -1.875q-0.40625 0 -0.625 -0.21875q-0.203125 -0.234375 -0.203125 -0.65625l0 -13.578125q0 -0.421875 0.203125 -0.65625q0.21875 -0.234375 0.5625 -0.234375q0.34375 0 0.5 0.125q0.15625 0.109375 0.375 0.40625l9.296875 12.390625l-0.515625 0l0 -12.0625q0 -0.40625 0.21875 -0.625q0.21875 -0.234375 0.609375 -0.234375q0.390625 0 0.59375 0.234375q0.203125 0.21875 0.203125 0.625l0 13.625q0 0.40625 -0.1875 0.640625q-0.171875 0.21875 -0.515625 0.21875q-0.328125 0 -0.515625 -0.140625q-0.1875 -0.125 -0.40625 -0.40625l-9.28125 -12.390625l0.5 0l0 12.0625q0 0.421875 -0.21875 0.65625q-0.203125 0.21875 -0.59375 0.21875zm19.017258 0.03125q-1.5 0 -2.609375 -0.65625q-1.109375 -0.65625 -1.71875 -1.859375q-0.609375 -1.21875 -0.609375 -2.859375q0 -1.234375 0.328125 -2.21875q0.34375 -1.0 1.0 -1.703125q0.671875 -0.703125 1.578125 -1.078125q0.90625 -0.375 2.03125 -0.375q1.515625 0 2.625 0.671875q1.109375 0.65625 1.71875 1.859375q0.609375 1.203125 0.609375 2.84375q0 1.234375 -0.34375 2.21875q-0.34375 0.984375 -1.0 1.703125q-0.65625 0.71875 -1.5625 1.09375q-0.90625 0.359375 -2.046875 0.359375zm0 -1.375q0.96875 0 1.6875 -0.46875q0.734375 -0.484375 1.125 -1.375q0.390625 -0.890625 0.390625 -2.15625q0 -1.9375 -0.859375 -2.953125q-0.859375 -1.03125 -2.34375 -1.03125q-0.96875 0 -1.6875 0.46875q-0.71875 0.453125 -1.109375 1.34375q-0.390625 0.875 -0.390625 2.171875q0 1.921875 0.875 2.96875q0.875 1.03125 2.3125 1.03125zm12.23349 1.375q-1.640625 0 -2.828125 -0.640625q-1.1875 -0.65625 -1.84375 -1.84375q-0.640625 -1.203125 -0.640625 -2.859375q0 -1.625 0.640625 -2.828125q0.640625 -1.203125 1.75 -1.890625q1.125 -0.6875 2.59375 -0.6875q1.046875 0 1.875 0.359375q0.84375 0.34375 1.421875 1.015625q0.59375 0.65625 0.890625 1.59375q0.3125 0.9375 0.3125 2.109375q0 0.34375 -0.1875 0.515625q-0.1875 0.15625 -0.5625 0.15625l-7.421875 0l0 -1.140625l7.03125 0l-0.34375 0.28125q0 -1.15625 -0.34375 -1.953125q-0.34375 -0.796875 -1.0 -1.21875q-0.640625 -0.4375 -1.625 -0.4375q-1.09375 0 -1.859375 0.5q-0.75 0.5 -1.140625 1.390625q-0.375 0.890625 -0.375 2.0625l0 0.125q0 1.96875 0.953125 3.0q0.953125 1.015625 2.703125 1.015625q0.71875 0 1.4375 -0.1875q0.71875 -0.203125 1.390625 -0.65625q0.296875 -0.1875 0.546875 -0.171875q0.25 0 0.390625 0.140625q0.15625 0.140625 0.203125 0.34375q0.0625 0.203125 -0.046875 0.4375q-0.09375 0.234375 -0.359375 0.40625q-0.703125 0.515625 -1.671875 0.796875q-0.953125 0.265625 -1.890625 0.265625zm0.375 -12.046875q-0.15625 0.21875 -0.375 0.25q-0.203125 0.03125 -0.390625 -0.0625q-0.1875 -0.09375 -0.28125 -0.28125q-0.078125 -0.203125 0.046875 -0.453125l1.796875 -3.484375q0.140625 -0.296875 0.375 -0.375q0.234375 -0.09375 0.484375 -0.03125q0.25 0.046875 0.40625 0.21875q0.171875 0.171875 0.203125 0.40625q0.03125 0.234375 -0.125 0.484375l-2.140625 3.328125zm16.474289 12.046875q-1.640625 0 -2.828125 -0.640625q-1.1875 -0.65625 -1.84375 -1.84375q-0.640625 -1.203125 -0.640625 -2.859375q0 -1.625 0.640625 -2.828125q0.640625 -1.203125 1.75 -1.890625q1.125 -0.6875 2.59375 -0.6875q1.046875 0 1.875 0.359375q0.84375 0.34375 1.421875 1.015625q0.59375 0.65625 0.890625 1.59375q0.3125 0.9375 0.3125 2.109375q0 0.34375 -0.1875 0.515625q-0.1875 0.15625 -0.5625 0.15625l-7.421875 0l0 -1.140625l7.03125 0l-0.34375 0.28125q0 -1.15625 -0.34375 -1.953125q-0.34375 -0.796875 -1.0 -1.21875q-0.640625 -0.4375 -1.625 -0.4375q-1.09375 0 -1.859375 0.5q-0.75 0.5 -1.140625 1.390625q-0.375 0.890625 -0.375 2.0625l0 0.125q0 1.96875 0.953125 3.0q0.953125 1.015625 2.703125 1.015625q0.71875 0 1.4375 -0.1875q0.71875 -0.203125 1.390625 -0.65625q0.296875 -0.1875 0.546875 -0.171875q0.25 0 0.390625 0.140625q0.15625 0.140625 0.203125 0.34375q0.0625 0.203125 -0.046875 0.4375q-0.09375 0.234375 -0.359375 0.40625q-0.703125 0.515625 -1.671875 0.796875q-0.953125 0.265625 -1.890625 0.265625zm10.830994 0q-1.21875 0 -2.046875 -0.4375q-0.8125 -0.4375 -1.21875 -1.28125q-0.40625 -0.84375 -0.40625 -2.046875l0 -5.4375l-1.421875 0q-0.375 0 -0.5625 -0.1875q-0.1875 -0.1875 -0.1875 -0.5q0 -0.328125 0.1875 -0.484375q0.1875 -0.171875 0.5625 -0.171875l1.421875 0l0 -2.453125q0 -0.4375 0.234375 -0.65625q0.234375 -0.21875 0.640625 -0.21875q0.40625 0 0.625 0.21875q0.234375 0.21875 0.234375 0.65625l0 2.453125l2.6875 0q0.359375 0 0.546875 0.171875q0.1875 0.15625 0.1875 0.484375q0 0.3125 -0.1875 0.5q-0.1875 0.1875 -0.546875 0.1875l-2.6875 0l0 5.265625q0 1.21875 0.5 1.84375q0.515625 0.625 1.671875 0.625q0.40625 0 0.6875 -0.078125q0.296875 -0.09375 0.484375 -0.09375q0.1875 -0.015625 0.3125 0.140625q0.140625 0.140625 0.140625 0.5q0 0.265625 -0.109375 0.484375q-0.09375 0.203125 -0.328125 0.28125q-0.25 0.09375 -0.671875 0.15625q-0.40625 0.078125 -0.75 0.078125zm9.889435 -0.03125q-0.375 0 -0.59375 -0.21875q-0.21875 -0.234375 -0.21875 -0.640625l0 -13.625q0 -0.4375 0.21875 -0.640625q0.21875 -0.21875 0.59375 -0.21875q0.34375 0 0.546875 0.140625q0.203125 0.140625 0.375 0.453125l5.84375 11.015625l-0.640625 0l5.828125 -11.015625q0.171875 -0.3125 0.359375 -0.453125q0.1875 -0.140625 0.546875 -0.140625q0.375 0 0.578125 0.21875q0.21875 0.203125 0.21875 0.640625l0 13.625q0 0.40625 -0.203125 0.640625q-0.203125 0.21875 -0.609375 0.21875q-0.375 0 -0.59375 -0.21875q-0.21875 -0.234375 -0.21875 -0.640625l0 -11.984375l0.515625 0l-5.328125 10.0q-0.15625 0.28125 -0.3125 0.40625q-0.15625 0.109375 -0.453125 0.109375q-0.3125 0 -0.484375 -0.125q-0.15625 -0.140625 -0.296875 -0.390625l-5.390625 -10.03125l0.515625 0l0 12.015625q0 0.40625 -0.203125 0.640625q-0.203125 0.21875 -0.59375 0.21875zm20.423126 0.03125q-1.078125 0 -1.921875 -0.40625q-0.828125 -0.421875 -1.328125 -1.140625q-0.484375 -0.734375 -0.484375 -1.625q0 -1.15625 0.578125 -1.8125q0.59375 -0.65625 1.9375 -0.9375q1.359375 -0.28125 3.703125 -0.28125l0.96875 0l0 1.125l-0.9375 0q-1.734375 0 -2.734375 0.171875q-0.984375 0.15625 -1.375 0.546875q-0.390625 0.375 -0.390625 1.078125q0 0.875 0.59375 1.4375q0.609375 0.546875 1.65625 0.546875q0.859375 0 1.5 -0.40625q0.65625 -0.40625 1.03125 -1.109375q0.375 -0.703125 0.375 -1.625l0 -2.421875q0 -1.328125 -0.53125 -1.90625q-0.53125 -0.59375 -1.75 -0.59375q-0.75 0 -1.5 0.203125q-0.734375 0.1875 -1.578125 0.609375q-0.296875 0.140625 -0.515625 0.09375q-0.203125 -0.046875 -0.328125 -0.21875q-0.125 -0.171875 -0.15625 -0.390625q-0.015625 -0.234375 0.09375 -0.4375q0.125 -0.21875 0.375 -0.34375q0.9375 -0.46875 1.859375 -0.6875q0.921875 -0.21875 1.75 -0.21875q1.34375 0 2.21875 0.4375q0.875 0.4375 1.296875 1.328125q0.421875 0.890625 0.421875 2.265625l0 5.78125q0 0.4375 -0.203125 0.671875q-0.1875 0.234375 -0.578125 0.234375q-0.40625 0 -0.625 -0.234375q-0.203125 -0.234375 -0.203125 -0.671875l0 -1.65625l0.1875 0q-0.171875 0.8125 -0.65625 1.390625q-0.46875 0.5625 -1.171875 0.890625q-0.703125 0.3125 -1.578125 0.3125zm8.91333 -0.03125q-0.4375 0 -0.65625 -0.234375q-0.21875 -0.234375 -0.21875 -0.671875l0 -8.890625q0 -0.421875 0.203125 -0.640625q0.21875 -0.234375 0.625 -0.234375q0.40625 0 0.625 0.234375q0.234375 0.21875 0.234375 0.640625l0 1.734375l-0.21875 0q0.34375 -1.265625 1.296875 -1.9375q0.96875 -0.6875 2.375 -0.734375q0.3125 -0.015625 0.5 0.140625q0.203125 0.15625 0.21875 0.546875q0.015625 0.359375 -0.171875 0.578125q-0.1875 0.203125 -0.59375 0.25l-0.34375 0.046875q-1.453125 0.125 -2.234375 0.921875q-0.765625 0.796875 -0.765625 2.1875l0 5.15625q0 0.4375 -0.234375 0.671875q-0.21875 0.234375 -0.640625 0.234375zm11.471405 0.03125q-1.21875 0 -2.046875 -0.4375q-0.8125 -0.4375 -1.21875 -1.28125q-0.40625 -0.84375 -0.40625 -2.046875l0 -5.4375l-1.421875 0q-0.375 0 -0.5625 -0.1875q-0.1875 -0.1875 -0.1875 -0.5q0 -0.328125 0.1875 -0.484375q0.1875 -0.171875 0.5625 -0.171875l1.421875 0l0 -2.453125q0 -0.4375 0.234375 -0.65625q0.234375 -0.21875 0.640625 -0.21875q0.40625 0 0.625 0.21875q0.234375 0.21875 0.234375 0.65625l0 2.453125l2.6875 0q0.359375 0 0.546875 0.171875q0.1875 0.15625 0.1875 0.484375q0 0.3125 -0.1875 0.5q-0.1875 0.1875 -0.546875 0.1875l-2.6875 0l0 5.265625q0 1.21875 0.5 1.84375q0.515625 0.625 1.671875 0.625q0.40625 0 0.6875 -0.078125q0.296875 -0.09375 0.484375 -0.09375q0.1875 -0.015625 0.3125 0.140625q0.140625 0.140625 0.140625 0.5q0 0.265625 -0.109375 0.484375q-0.09375 0.203125 -0.328125 0.28125q-0.25 0.09375 -0.671875 0.15625q-0.40625 0.078125 -0.75 0.078125zm4.2803955 -0.078125q-0.421875 0 -0.640625 -0.25q-0.203125 -0.25 -0.203125 -0.6875l0 -8.734375q0 -0.4375 0.203125 -0.671875q0.21875 -0.234375 0.640625 -0.234375q0.40625 0 0.640625 0.234375q0.234375 0.234375 0.234375 0.671875l0 8.734375q0 0.4375 -0.21875 0.6875q-0.21875 0.25 -0.65625 0.25zm0 -12.96875q-0.53125 0 -0.828125 -0.28125q-0.296875 -0.296875 -0.296875 -0.78125q0 -0.515625 0.296875 -0.78125q0.296875 -0.265625 0.828125 -0.265625q0.5625 0 0.84375 0.265625q0.296875 0.265625 0.296875 0.78125q0 0.484375 -0.296875 0.78125q-0.28125 0.28125 -0.84375 0.28125zm4.9481506 13.015625q-0.421875 0 -0.640625 -0.234375q-0.203125 -0.234375 -0.203125 -0.671875l0 -8.890625q0 -0.421875 0.203125 -0.640625q0.21875 -0.234375 0.625 -0.234375q0.40625 0 0.625 0.234375q0.234375 0.21875 0.234375 0.640625l0 1.828125l-0.234375 -0.25q0.4375 -1.234375 1.453125 -1.859375q1.015625 -0.640625 2.34375 -0.640625q1.234375 0 2.046875 0.453125q0.828125 0.453125 1.234375 1.359375q0.40625 0.90625 0.40625 2.28125l0 5.71875q0 0.4375 -0.234375 0.671875q-0.21875 0.234375 -0.625 0.234375q-0.421875 0 -0.65625 -0.234375q-0.21875 -0.234375 -0.21875 -0.671875l0 -5.609375q0 -1.453125 -0.5625 -2.125q-0.5625 -0.671875 -1.796875 -0.671875q-1.4375 0 -2.28125 0.890625q-0.84375 0.890625 -0.84375 2.359375l0 5.15625q0 0.90625 -0.875 0.90625z" fill-rule="nonzero"/></g></svg>